<!-- icon666.com - MILLIONS vector ICONS FREE --><svg version="1.1" id="Capa_1" xmlns="http://www.w3.org/2000/svg" xmlns:xlink="http://www.w3.org/1999/xlink" x="0px" y="0px" viewBox="0 0 512 512" style="enable-background:new 0 0 512 512;" xml:space="preserve"><g><g><path d="M181.333,202.667c-5.888,0-10.667,4.779-10.667,10.667v53.333l-44.8-59.733c-2.752-3.669-7.552-5.184-11.904-3.712 c-4.352,1.451-7.296,5.525-7.296,10.112v85.333c0,5.888,4.779,10.667,10.667,10.667S128,304.555,128,298.667v-53.333l44.8,59.733 c2.048,2.731,5.248,4.267,8.533,4.267c1.131,0,2.261-0.171,3.371-0.555c4.352-1.451,7.296-5.525,7.296-10.112v-85.333 C192,207.445,187.221,202.667,181.333,202.667z"></path></g></g><g><g><path d="M266.667,288h-32v-64h32c5.888,0,10.667-4.779,10.667-10.667s-4.779-10.667-10.667-10.667H224 c-5.888,0-10.667,4.779-10.667,10.667v85.333c0,5.888,4.779,10.667,10.667,10.667h42.667c5.888,0,10.667-4.779,10.667-10.667 S272.555,288,266.667,288z"></path></g></g><g><g><path d="M266.667,245.333H224c-5.888,0-10.667,4.779-10.667,10.667s4.779,10.667,10.667,10.667h42.667 c5.888,0,10.667-4.779,10.667-10.667S272.555,245.333,266.667,245.333z"></path></g></g><g><g><path d="M397.248,202.987c-5.717-1.451-11.52,2.027-12.928,7.765l-12.459,49.792l-9.749-29.248c-2.88-8.704-17.323-8.704-20.224,0 l-9.749,29.248l-12.459-49.792c-1.429-5.739-7.232-9.195-12.928-7.765c-5.717,1.429-9.195,7.211-7.765,12.928l21.333,85.333 c1.152,4.587,5.205,7.893,9.941,8.064c4.821,0.533,9.024-2.773,10.517-7.275L352,268.395l11.221,33.643 c1.451,4.373,5.547,7.296,10.112,7.296c0.128,0,0.277,0,0.405-0.021c4.736-0.171,8.789-3.456,9.941-8.064l21.333-85.333 C406.443,210.197,402.965,204.416,397.248,202.987z"></path></g></g><g><g><path d="M501.333,138.667H10.667C4.779,138.667,0,143.445,0,149.333S4.779,160,10.667,160h490.667 c5.888,0,10.667-4.779,10.667-10.667S507.221,138.667,501.333,138.667z"></path></g></g><g><g><path d="M501.333,352H10.667C4.779,352,0,356.779,0,362.667s4.779,10.667,10.667,10.667h490.667 c5.888,0,10.667-4.779,10.667-10.667S507.221,352,501.333,352z"></path></g></g></svg>